# xmcd
#
# Track frame offsets: 
#        150
#        14505
#        34182
#        51840
#        79981
#        100026
#        125308
#        154230
#        175982
#        188346
#        206038
#
# Disc length: 3509 seconds
#
# Revision: 0
# Processed by: cddbd v1.5.2PL0 Copyright (c) Steve Scherf et al.
# Submitted via: ExactAudioCopyFreeDBPlugin 1.0
#
DISCID=8b0db30b
DTITLE=THE DEEP DARK WOODS - Hang Me Oh Hang Me
DYEAR=2007
DGENRE=Alternative
TTITLE0=Five-hundred meters
TTITLE1=Hang me, oh hang me
TTITLE2=Redwood forest
TTITLE3=River In the pines
TTITLE4=They won't last long
TTITLE5=Shores of Alabama
TTITLE6=By the light of the moon
TTITLE7=Journey home
TTITLE8=Rumble in the sky
TTITLE9=Glory, hallelujah
TTITLE10=Big city blues
EXTD=
EXTT0=
EXTT1=
EXTT2=
EXTT3=
EXTT4=
EXTT5=
EXTT6=
EXTT7=
EXTT8=
EXTT9=
EXTT10=
PLAYORDER=
